<?xml version="1.0" encoding="UTF-8"?>
<svg width="40px" height="40px" viewBox="0 0 40 40" version="1.1" xmlns="http://www.w3.org/2000/svg" xmlns:xlink="http://www.w3.org/1999/xlink">
    <!-- Generator: Sketch 54.1 (76490) - https://sketchapp.com -->
    <title>Artboard Copy 29</title>
    <desc>Created with Sketch.</desc>
    <g id="Artboard-Copy-29" stroke="none" stroke-width="1" fill="none" fill-rule="evenodd">
        <g id="github-seeklogo.com" transform="translate(3.000000, 3.000000)" fill="#161614" fill-rule="nonzero">
            <path d="M17.4081442,0 C7.79515179,0 0,7.79371041 0,17.4081442 C0,25.0995182 4.98796316,31.6248337 11.9047514,33.9266823 C12.774755,34.0878259 13.09416,33.5490464 13.09416,33.0892533 C13.09416,32.6741421 13.0780167,31.3028343 13.0705217,29.8482159 C8.22755916,30.901272 7.20563642,27.7942808 7.20563642,27.7942808 C6.41375434,25.7821453 5.27277549,25.2471132 5.27277549,25.2471132 C3.69333548,24.1666714 5.3918316,24.1888682 5.3918316,24.1888682 C7.1399105,24.3116718 8.06036164,25.9827823 8.06036164,25.9827823 C9.61299238,28.6441055 12.1327742,27.8747086 13.1261581,27.4299056 C13.2824013,26.3047816 13.7335464,25.5368261 14.2313913,25.1021126 C10.3648047,24.6619218 6.30017538,23.1692516 6.30017538,16.4989355 C6.30017538,14.5983609 6.980208,13.0454421 8.09380114,11.8263415 C7.91305484,11.3878805 7.31719751,9.61731643 8.26244001,7.21947345 C8.26244001,7.21947345 9.72426521,6.75160866 13.0509192,9.00387449 C14.4395235,8.61816714 15.9287344,8.42473691 17.4081442,8.41810668 C18.8875539,8.42473691 20.377918,8.61816714 21.7691165,9.00387449 C25.0917348,6.75160866 26.5515419,7.21947345 26.5515419,7.21947345 C27.4990908,9.61731643 26.9029451,11.3878805 26.7221988,11.8263415 C27.8383864,13.0454421 28.5138066,14.5983609 28.5138066,16.4989355 C28.5138066,23.1851066 24.4413941,24.6573096 20.5650062,25.0882755 C21.1894025,25.6284966 21.7457665,26.6878944 21.7457665,28.3120166 C21.7457665,30.6412511 21.7255876,32.5158811 21.7255876,33.0892533 C21.7255876,33.5525057 22.0389387,34.095321 22.921338,33.924376 C29.8343788,31.619933 34.816,25.0969237 34.816,17.4081442 C34.816,7.79371041 27.0220014,0 17.4081442,0 Z M6.51991606,24.7982688 C6.48157592,24.8847503 6.34551173,24.9106947 6.22155497,24.8513109 C6.095292,24.7945212 6.02437723,24.6766182 6.06531179,24.5898486 C6.10278708,24.5007725 6.23913954,24.4759812 6.3651142,24.5356534 C6.49166545,24.5924429 6.56373333,24.7114991 6.51991606,24.7982688 Z M7.37620333,25.5623225 C7.29318112,25.6392911 7.13088423,25.6035454 7.02076448,25.4818949 C6.9068972,25.3605325 6.88556512,25.1982356 6.9697404,25.1201139 C7.05535705,25.0431454 7.21275336,25.0791794 7.32690891,25.2005417 C7.44077613,25.3233454 7.46297306,25.4844892 7.37620333,25.5623225 Z M7.96364882,26.5399032 C7.85698836,26.6139891 7.68258405,26.5445155 7.57477047,26.3897138 C7.46810997,26.2349119 7.46810997,26.049265 7.57707666,25.9748909 C7.68517845,25.9005169 7.85698836,25.967396 7.96624326,26.1210447 C8.0726155,26.2784409 8.0726155,26.4640877 7.96364882,26.5399032 Z M8.95714485,27.6720797 C8.86172697,27.7772991 8.65849553,27.7490483 8.50974735,27.6054892 C8.35753999,27.4651007 8.31516406,27.2659051 8.41087024,27.1606859 C8.50744119,27.0551786 8.71182574,27.0848706 8.86172697,27.2272767 C9.01278128,27.3673768 9.05890473,27.5680138 8.95714485,27.6720797 Z M10.2411421,28.0542897 C10.1990544,28.1906422 10.003318,28.2526206 9.80614025,28.194678 C9.60925076,28.1350058 9.48039337,27.9753035 9.52017486,27.8375097 C9.5611094,27.7002925 9.75771061,27.6357195 9.95632974,27.6976978 C10.152931,27.7570818 10.2820767,27.9156312 10.2411421,28.0542897 Z M11.7023848,28.2164133 C11.7072854,28.3599724 11.5400878,28.4790286 11.3331089,28.4816232 C11.1249768,28.4862355 10.9566262,28.3700621 10.95432,28.228809 C10.95432,28.0838084 11.11777,27.9659054 11.3259021,27.9624461 C11.5328811,27.9584103 11.7023848,28.0737188 11.7023848,28.2164133 Z M13.137892,28.1613871 C13.1626834,28.3014873 13.0188358,28.4453346 12.8132982,28.4836748 C12.6112198,28.5205735 12.4241316,28.434092 12.3984754,28.2951452 C12.3733958,28.1515859 12.5198378,28.0077384 12.7216279,27.9705515 C12.9274538,27.9348058 13.1116593,28.018981 13.137892,28.1613871 Z" id="Shape"></path>
        </g>
    </g>
</svg>