<?xml version="1.0" encoding="UTF-8"?>
<svg width="40px" height="40px" viewBox="0 0 40 40" version="1.1" xmlns="http://www.w3.org/2000/svg" xmlns:xlink="http://www.w3.org/1999/xlink">
    <!-- Generator: Sketch 54.1 (76490) - https://sketchapp.com -->
    <title>Artboard Copy 14</title>
    <desc>Created with Sketch.</desc>
    <g id="Artboard-Copy-14" stroke="none" stroke-width="1" fill="none" fill-rule="evenodd">
        <g id="my_sql" transform="translate(3.000000, 8.000000)" fill-rule="nonzero">
            <path d="M8.04126984,20.7777778 L6.74603175,20.7777778 C6.69206349,18.6190476 6.58412698,16.5142857 6.36825397,14.6253968 L6.36825397,14.6253968 L4.42539683,20.7777778 L3.4,20.7777778 L1.45714286,14.5714286 L1.45714286,14.5714286 C1.2952381,16.4063492 1.24126984,18.4571429 1.18730159,20.7238095 L0,20.7238095 C0.053968254,17.9714286 0.26984127,15.3809524 0.593650794,13.0063492 L2.21269841,13.0063492 L4.1015873,18.6730159 L4.1015873,18.6730159 L5.93650794,13.0063492 L7.44761905,13.0063492 C7.82539683,15.8666667 7.98730159,18.4031746 8.04126984,20.7777778 L8.04126984,20.7777778 Z M13.6539683,15.0571429 C13.1142857,17.9174603 12.4126984,19.968254 11.5492063,21.3174603 C10.9015873,22.3428571 10.1460317,22.8285714 9.33650794,22.8285714 C9.12063492,22.8285714 8.85079365,22.7746032 8.52698413,22.6126984 L8.52698413,21.9111111 C8.68888889,21.9111111 8.85079365,21.9650794 9.06666667,21.9650794 C9.44444444,21.9650794 9.76825397,21.8571429 9.98412698,21.6412698 C10.2539683,21.3714286 10.415873,21.1015873 10.415873,20.7777778 C10.415873,20.5619048 10.3079365,20.1301587 10.0920635,19.4825397 L8.68888889,15.0571429 L9.98412698,15.0571429 L11.0095238,18.3492063 C11.2253968,19.1047619 11.3333333,19.6444444 11.2793651,19.9142857 C11.8190476,18.4031746 12.2507937,16.784127 12.4666667,15.0571429 L13.6539683,15.0571429 L13.6539683,15.0571429 L13.6539683,15.0571429 Z" id="Shape" fill="#5D87A1"></path>
            <path d="M30.9238095,20.7777778 L27.2539683,20.7777778 L27.2539683,13.0063492 L28.4952381,13.0063492 L28.4952381,19.8063492 L30.9238095,19.8063492 L30.9238095,20.7777778 Z M26.2825397,20.9396825 L24.8253968,20.2380952 C24.9333333,20.1301587 25.0952381,20.0222222 25.2031746,19.9142857 C25.7968254,19.2126984 26.1206349,18.1333333 26.1206349,16.784127 C26.1206349,14.247619 25.0952381,12.952381 23.0984127,12.952381 C22.1269841,12.952381 21.3714286,13.2761905 20.7777778,13.9238095 C20.184127,14.6253968 19.8603175,15.7047619 19.8603175,17.0539683 C19.8603175,18.4031746 20.1301587,19.4285714 20.6698413,20.0222222 C21.1555556,20.615873 21.9111111,20.8857143 22.8825397,20.8857143 C23.2603175,20.8857143 23.584127,20.831746 23.9079365,20.7238095 L25.7428571,21.8031746 L26.2825397,20.9396825 Z M21.6412698,19.2126984 C21.3174603,18.7269841 21.1555556,17.9174603 21.1555556,16.784127 C21.1555556,14.8412698 21.7492063,13.8698413 22.9365079,13.8698413 C23.5301587,13.8698413 24.015873,14.0857143 24.2857143,14.5714286 C24.6095238,15.0571429 24.7714286,15.8666667 24.7714286,17 C24.7714286,18.9428571 24.1777778,19.968254 22.9904762,19.968254 C22.3968254,19.9142857 21.9650794,19.6984127 21.6412698,19.2126984 L21.6412698,19.2126984 Z M19.3746032,18.6190476 C19.3746032,19.2666667 19.1587302,19.8063492 18.6730159,20.2380952 C18.1873016,20.6698413 17.5396825,20.8857143 16.7301587,20.8857143 C15.9746032,20.8857143 15.2190476,20.6698413 14.5174603,20.184127 L14.8412698,19.5365079 C15.4349206,19.8603175 16.0285714,19.968254 16.5142857,19.968254 C17,19.968254 17.3238095,19.8603175 17.5936508,19.6444444 C17.8634921,19.4285714 18.0253968,19.1587302 18.0253968,18.7809524 C18.0253968,18.2952381 17.7015873,17.9174603 17.1079365,17.5936508 C16.568254,17.2698413 15.4888889,16.6761905 15.4888889,16.6761905 C14.8952381,16.2444444 14.6253968,15.8126984 14.6253968,15.0571429 C14.6253968,14.4095238 14.8412698,13.9238095 15.2730159,13.5460317 C15.7047619,13.168254 16.2984127,12.952381 17,12.952381 C17.7015873,12.952381 18.3492063,13.168254 18.9428571,13.5460317 L18.6190476,14.1936508 C18.1333333,13.9777778 17.5936508,13.8698413 17.1079365,13.8698413 C16.7301587,13.8698413 16.4063492,13.9777778 16.1904762,14.1396825 C15.9746032,14.3555556 15.8666667,14.5714286 15.8666667,14.8952381 C15.8666667,15.3269841 16.1904762,15.7587302 16.784127,16.0825397 C17.3238095,16.4063492 18.4571429,17 18.4571429,17 C19.0507937,17.3777778 19.3746032,17.8634921 19.3746032,18.6190476 L19.3746032,18.6190476 Z" id="Shape" fill="#F8981D"></path>
            <path d="M32.4888889,10.415873 C31.7333333,10.415873 31.1396825,10.4698413 30.6539683,10.6857143 C30.4920635,10.7396825 30.2761905,10.7396825 30.2761905,10.9015873 C30.3301587,10.9555556 30.384127,11.1174603 30.4380952,11.2253968 C30.5460317,11.3873016 30.7619048,11.6571429 30.9238095,11.8190476 C31.1396825,11.9809524 31.3015873,12.1428571 31.5174603,12.2507937 C31.8952381,12.4666667 32.2730159,12.6285714 32.6507937,12.8444444 C32.8666667,12.952381 33.0825397,13.168254 33.2444444,13.2761905 C33.352381,13.3301587 33.4063492,13.4920635 33.568254,13.5460317 L33.568254,13.4920635 C33.5142857,13.384127 33.4603175,13.2761905 33.4063492,13.168254 L33.1365079,12.8984127 C32.8666667,12.5206349 32.5428571,12.1968254 32.1650794,11.9809524 C31.8412698,11.7650794 31.1936508,11.4952381 31.0857143,11.1714286 L31.0857143,11.1714286 C31.3015873,11.1714286 31.5174603,11.0634921 31.7333333,11.0095238 C32.0571429,10.9015873 32.3269841,10.9555556 32.6507937,10.847619 C32.8126984,10.7936508 32.9746032,10.7396825 33.0825397,10.7396825 L33.0825397,10.631746 C32.9206349,10.4698413 32.8126984,10.2539683 32.5968254,10.0920635 C32.1111111,9.66031746 31.5714286,9.28253968 31.031746,8.95873016 C30.7619048,8.7968254 30.384127,8.63492063 30.0603175,8.47301587 C29.952381,8.41904762 29.7365079,8.36507937 29.6825397,8.31111111 C29.5206349,8.0952381 29.4126984,7.82539683 29.3047619,7.60952381 C29.0349206,7.06984127 28.7650794,6.53015873 28.5492063,5.99047619 C28.3873016,5.61269841 28.2793651,5.28888889 28.0634921,4.91111111 C27.0920635,3.34603175 26.0666667,2.37460317 24.447619,1.4031746 C24.1238095,1.18730159 23.6920635,1.13333333 23.2603175,1.02539683 L22.5587302,0.971428571 C22.3968254,0.917460317 22.2349206,0.701587302 22.1269841,0.647619048 C21.5873016,0.323809524 20.2380952,-0.431746032 19.8063492,0.53968254 C19.5365079,1.13333333 20.184127,1.72698413 20.4,2.05079365 C20.5619048,2.26666667 20.7777778,2.48253968 20.8857143,2.75238095 C20.9396825,2.91428571 20.9936508,3.07619048 21.047619,3.23809524 C21.2095238,3.66984127 21.3174603,4.1015873 21.5333333,4.47936508 C21.6412698,4.6952381 21.7492063,4.85714286 21.8571429,5.07301587 C21.9650794,5.12698413 22.1269841,5.18095238 22.1269841,5.34285714 C22.0190476,5.5047619 21.9650794,5.82857143 21.9111111,6.04444444 C21.5873016,7.12380952 21.6952381,8.41904762 22.1809524,9.17460317 C22.3428571,9.39047619 22.6666667,9.93015873 23.152381,9.71428571 C23.584127,9.55238095 23.4761905,9.01269841 23.584127,8.52698413 C23.6380952,8.41904762 23.584127,8.36507937 23.6380952,8.25714286 L23.6380952,8.25714286 C23.7460317,8.52698413 23.9079365,8.7968254 24.015873,9.01269841 C24.2857143,9.44444444 24.8253968,9.93015873 25.2571429,10.2539683 C25.4730159,10.415873 25.6349206,10.6857143 25.9587302,10.7936508 L25.9587302,10.7396825 L25.9587302,10.7396825 C25.9047619,10.631746 25.7968254,10.631746 25.7428571,10.5777778 C25.5809524,10.415873 25.3650794,10.2 25.2571429,10.0380952 C24.8793651,9.4984127 24.5015873,8.95873016 24.231746,8.31111111 C24.0698413,8.04126984 23.9619048,7.71746032 23.8539683,7.39365079 C23.8,7.28571429 23.8,7.12380952 23.6920635,7.06984127 C23.5301587,7.28571429 23.368254,7.44761905 23.2603175,7.71746032 C23.0984127,8.0952381 23.0444444,8.63492063 22.9904762,9.12063492 L22.9365079,9.12063492 C22.6126984,9.06666667 22.5587302,8.74285714 22.3968254,8.47301587 C22.1269841,7.82539683 22.0730159,6.74603175 22.2888889,5.99047619 C22.3428571,5.77460317 22.6126984,5.18095238 22.5047619,4.96507937 C22.4507937,4.8031746 22.2349206,4.6952381 22.1809524,4.53333333 C22.0730159,4.37142857 21.9111111,4.15555556 21.8571429,3.93968254 C21.6412698,3.4 21.5333333,2.86031746 21.2634921,2.32063492 C21.1555556,2.05079365 20.9396825,1.83492063 20.7777778,1.61904762 C20.615873,1.34920635 20.4,1.18730159 20.2380952,0.863492063 C20.184127,0.755555556 20.1301587,0.593650794 20.184127,0.485714286 C20.184127,0.431746032 20.2380952,0.377777778 20.2920635,0.377777778 C20.5079365,0.431746032 20.8857143,0.53968254 20.9936508,0.593650794 C21.3174603,0.755555556 21.6412698,0.863492063 21.9111111,1.07936508 C22.0190476,1.18730159 22.1809524,1.34920635 22.3428571,1.4031746 L22.5587302,1.4031746 C22.8825397,1.45714286 23.2063492,1.4031746 23.4761905,1.51111111 C23.9619048,1.67301587 24.3936508,1.88888889 24.8253968,2.15873016 C26.0666667,2.91428571 27.0380952,4.04761905 27.7396825,5.34285714 C27.847619,5.55873016 27.9015873,5.77460317 28.0095238,5.99047619 C28.2253968,6.42222222 28.4412698,6.90793651 28.6571429,7.33968254 C28.8730159,7.77142857 29.0349206,8.2031746 29.3047619,8.58095238 C29.4666667,8.7968254 30.0063492,8.9047619 30.2761905,8.95873016 C30.4380952,9.06666667 30.7619048,9.12063492 30.9238095,9.22857143 C31.247619,9.44444444 31.5714286,9.66031746 31.8412698,9.87619048 C31.9492063,9.98412698 32.4349206,10.2539683 32.4888889,10.415873 M22.9365079,2.32063492 C22.8285714,2.32063492 22.6666667,2.32063492 22.5587302,2.37460317 L22.5587302,2.37460317 L22.5587302,2.37460317 C22.6126984,2.53650794 22.7746032,2.64444444 22.8825397,2.75238095 C22.9365079,2.91428571 23.0444444,3.07619048 23.0984127,3.18412698 L23.0984127,3.18412698 C23.2063492,3.07619048 23.3142857,2.96825397 23.3142857,2.6984127 C23.2603175,2.64444444 23.2063492,2.59047619 23.2063492,2.53650794 C23.152381,2.42857143 22.9904762,2.37460317 22.9365079,2.32063492" id="Shape" fill="#5D87A1"></path>
            <path d="M33.352381,21.4450905 L33.568254,21.4450905 L33.568254,19.8063492 L33.2984127,19.8063492 L33.0825397,20.8988434 L32.8126984,19.8063492 L32.5428571,19.8063492 L32.5428571,21.4450905 L32.7047619,21.4450905 L32.7047619,20.2615551 L32.7047619,20.2615551 L32.9746032,21.4450905 L33.1365079,21.4450905 L33.4063492,20.2615551 L33.352381,21.4450905 L33.352381,21.4450905 Z M31.7873016,21.4450905 L32.0031746,21.4450905 L32.0031746,20.0794728 L32.2730159,20.0794728 L32.2730159,19.8063492 L31.5174603,19.8063492 L31.5174603,20.0794728 L31.7873016,20.0794728 L31.7873016,21.4450905 L31.7873016,21.4450905 Z" id="Shape" fill="#F8981D"></path>
        </g>
    </g>
</svg>