<?xml version="1.0" encoding="UTF-8"?>
<svg width="40px" height="40px" viewBox="0 0 40 40" version="1.1" xmlns="http://www.w3.org/2000/svg" xmlns:xlink="http://www.w3.org/1999/xlink">
    <!-- Generator: Sketch 54.1 (76490) - https://sketchapp.com -->
    <title>Artboard Copy 36</title>
    <desc>Created with Sketch.</desc>
    <g id="Artboard-Copy-36" stroke="none" stroke-width="1" fill="none" fill-rule="evenodd">
        <g id="postman" transform="translate(3.000000, 3.000000)" fill-rule="nonzero">
            <path d="M17,32.7279004 C25.6863107,32.7279004 32.7279004,25.6863107 32.7279004,17 C32.7279004,8.31368928 25.6863107,1.27209956 17,1.27209956 C8.31368928,1.27209956 1.27209956,8.31368928 1.27209956,17 C1.27209956,25.6863107 8.31368928,32.7279004 17,32.7279004 Z M17,34 C7.61075873,34 0,26.3892413 0,17 C0,7.61075873 7.61075873,0 17,0 C26.3892413,0 34,7.61075873 34,17 C34,26.3892413 26.3892413,34 17,34 Z" id="Shape" fill="#F4815B"></path>
            <g id="Group" transform="translate(2.961863, 2.879968)">
                <path d="M25.3696507,5.50742674 C20.5883581,-0.681091931 11.6973103,-1.82215978 5.50879165,2.95913288 C-0.678362104,7.74042553 -1.81942995,16.6314733 2.96186271,22.8186271 C7.74179045,29.0071457 16.6328382,30.1495785 22.8213569,25.3682858 C29.0098756,20.5883581 30.1509434,11.6945805 25.3696507,5.50742674 Z" id="Path" fill="#FF6C37"></path>
                <path d="M16.9494982,9.38514653 C15.9299077,9.8505821 14.2701726,11.2578081 11.5771979,13.9398635 L12.3429145,14.7055801 L12.5981534,14.9621839 L17.8025692,9.75776796 C17.964994,9.59534324 18.1710959,9.51344841 18.3826576,9.47659574 C17.996387,9.18723404 17.6251305,9.07667603 16.9494982,9.38514653 M19.245283,11.3710959 L13.7979125,16.1578483 C14.2824568,16.6437575 14.548615,16.9085508 14.6851064,17.0464071 C16.8430349,14.9990365 18.89723,12.9107186 19.245283,11.3710959 M9.9406664,15.6009635 C9.94885588,15.6146126 9.95704536,15.6132477 9.96523485,15.6118828 L12.1723003,15.1355279 L11.2782818,14.2428743 L9.94339623,15.576395 C9.93930149,15.5791248 9.93247692,15.5845845 9.9406664,15.6009635 M19.9468487,8.20449619 L21.7935769,6.35776796 C21.4209554,6.06704135 20.969169,5.92372541 20.5173826,5.92372541 C19.9837013,5.92372541 19.4500201,6.12573264 19.0487354,6.52838218 C18.6556403,6.92147732 18.4399839,7.44287435 18.4399839,7.99839422 C18.4399839,8.55391409 18.6556403,9.07667603 19.0487354,9.46977118 C19.6520273,10.0744279 20.5651546,10.247772 21.348615,9.90517864 L19.9482136,8.50614211 C19.9086311,8.46655961 19.8854275,8.41196307 19.8854275,8.35600161 C19.8840626,8.29867523 19.9072662,8.2454436 19.9468487,8.20449619" id="Shape" fill="#FFFFFF"></path>
                <path d="M21.9273384,8.68631072 C21.8904857,8.68631072 21.8536331,8.67266158 21.8222401,8.64809314 C21.7539944,8.59076676 21.7430751,8.48703332 21.8017664,8.41742272 C21.9259735,8.26728222 21.949177,8.05845042 21.8604576,7.88510638 C21.8208752,7.80457648 21.8536331,7.70630269 21.934163,7.66535528 C22.0146929,7.62577278 22.1129667,7.65853071 22.1539141,7.73906062 C22.2985949,8.02842232 22.2590124,8.37784022 22.0515456,8.62625452 C22.0215175,8.6644721 21.9751104,8.68631072 21.9273384,8.68631072 L21.9273384,8.68631072 Z M22.1020474,6.64849458 L20.3972702,8.35600161 L21.7294259,9.68815737 C21.8222401,9.62264151 21.9082296,9.54893617 21.9901244,9.46977118 C22.3832196,9.07667603 22.598876,8.55391409 22.598876,7.99839422 C22.598876,7.49883581 22.424167,7.02657567 22.1020474,6.64849458 L22.1020474,6.64849458 Z M18.1028503,10.0566841 L12.9134484,15.2474508 L13.5099157,15.8439181 L19.0050582,11.0175833 C19.1429145,10.896106 19.2220795,10.7268567 19.2275391,10.5439582 C19.2329988,10.3596949 19.1647531,10.1863509 19.0350863,10.0553191 C18.7784825,9.80008029 18.3608189,9.80008029 18.1028503,10.0566841 L18.1028503,10.0566841 Z M8.42015255,21.127499 C8.42015255,21.127499 8.42151746,21.127499 8.42288238,21.1261341 C10.8974709,19.8854275 12.8970695,18.6092332 14.3684464,17.331674 L13.5290245,16.493617 L11.323324,16.8362104 L6.95560016,21.2039342 L8.35327178,22.6016058 C8.38739462,22.6343637 8.42151746,22.6261742 8.444721,22.6152549 C8.46792453,22.6016058 8.49249297,22.5770373 8.48293858,22.5306303 L8.24407868,21.5083099 C8.20859093,21.3554396 8.28093135,21.1998394 8.42015255,21.127499 L8.42015255,21.127499 Z M7.91376957,22.7626656 L6.65531915,21.5042152 L5.58795664,22.5715777 C5.5838619,22.5743075 5.57976716,22.5797672 5.5838619,22.5906865 C5.58795664,22.6029707 5.59614613,22.6043356 5.60024087,22.6043356 L7.91376957,22.7626656 Z M11.8883982,16.272501 L11.892493,16.272501 C11.8965877,16.272501 11.9047772,16.2738659 11.9088719,16.2738659 L13.1495785,16.1128061 L12.6008832,15.561381 L11.8883982,16.272501 Z" id="Shape" fill="#FFFFFF"></path>
                <path d="M22.155279,7.73906062 C22.1156965,7.65853071 22.0160578,7.62440787 21.934163,7.66535528 C21.8536331,7.70493778 21.8208752,7.80321156 21.8604576,7.88510638 C21.9478121,8.05845042 21.9246086,8.26728222 21.8004014,8.41742272 C21.7417102,8.48703332 21.7526295,8.59076676 21.8222401,8.64809314 C21.8522682,8.67266158 21.8891208,8.68631072 21.9273384,8.68631072 C21.9751104,8.68631072 22.0201525,8.6644721 22.0529105,8.62625452 C22.2603774,8.37784022 22.2999599,8.02842232 22.155279,7.73906062" id="Path" fill="#FF6C37"></path>
            </g>
        </g>
    </g>
</svg>