<?xml version="1.0" encoding="UTF-8"?>
<svg width="40px" height="40px" viewBox="0 0 40 40" version="1.1" xmlns="http://www.w3.org/2000/svg" xmlns:xlink="http://www.w3.org/1999/xlink">
    <!-- Generator: Sketch 54.1 (76490) - https://sketchapp.com -->
    <title>Artboard Copy 9</title>
    <desc>Created with Sketch.</desc>
    <g id="Artboard-Copy-9" stroke="none" stroke-width="1" fill="none" fill-rule="evenodd">
        <g id="postgresql-seeklogo.com" transform="translate(4.000000, 3.000000)">
            <path d="M32.2952587,20.3667374 C32.1006331,19.7664074 31.5908029,19.3482813 30.931485,19.2479465 C30.6205913,19.2006845 30.2645597,19.220829 29.8432302,19.3092837 C29.1088515,19.4635952 28.5640268,19.5223498 28.1664074,19.5337134 C29.667243,16.9530305 30.887615,14.0101352 31.5901689,11.2398881 C32.7262243,6.76046316 32.1191447,4.71980611 31.4097441,3.79677779 C29.5323365,1.35361944 26.7932511,0.0411320547 23.4888008,0.000972316554 C21.726013,-0.0209799519 20.178518,0.333484618 19.371234,0.588389193 C18.6196116,0.453318177 17.8114401,0.377905679 16.9634559,0.363959532 C15.3738659,0.338133333 13.969392,0.691048331 12.7693067,1.41637711 C12.1049172,1.18755699 11.0385974,0.864987776 9.80719448,0.659152976 C6.911014,0.174911761 4.57677521,0.552232516 2.86939554,1.78065563 C0.801926892,3.26798638 -0.156493046,5.85215577 0.0207620236,9.46136696 C0.0770576253,10.6072754 0.706452595,14.0938121 1.69745805,17.4003403 C2.26700725,19.3008902 2.87434043,20.8791292 3.50259427,22.0916692 C4.39356092,23.8110483 5.34690918,24.8235644 6.41715957,25.1871973 C7.01701203,25.3907077 8.10691516,25.5332683 9.25324069,24.560912 C9.3985442,24.7401458 9.59240901,24.9182174 9.84966977,25.0836342 C10.1764125,25.2934721 10.5759337,25.464958 10.9749478,25.5665841 C12.4128947,25.9326705 13.759805,25.8411166 14.90892,25.3279501 C14.9160203,25.5361092 14.9214724,25.7349709 14.9260369,25.9067152 C14.9336444,26.1852507 14.9412519,26.4583627 14.9512685,26.7137838 C15.0193557,28.4407817 15.1347364,29.7836149 15.4765673,30.723172 C15.4953325,30.7748244 15.5205641,30.8535943 15.5471904,30.937142 C15.7177255,31.4689035 16.0028805,32.3591325 16.7283837,33.0563107 C17.4796257,33.7785404 18.3883432,34 19.2206052,34 C19.6380041,34 20.0362574,33.9442154 20.3855691,33.8680281 C21.6306655,33.5962074 23.0447755,33.1822134 24.0677326,31.6987566 C25.0349011,30.2963941 25.5050455,28.1841984 25.5901229,24.8561054 C25.6011537,24.7619689 25.6112971,24.6720938 25.6210601,24.5864799 L25.6413468,24.4106035 L25.8691918,24.4310062 L25.9278965,24.4350093 C27.196069,24.493893 28.7467339,24.2200062 29.6990678,23.7694681 C30.4515777,23.4138414 32.8630328,22.1172371 32.2952587,20.3667374" id="Path" fill="#000000"></path>
            <path d="M30.2605406,20.469175 C26.5119783,21.2572165 26.2542174,19.9638522 26.2542174,19.9638522 C30.2120135,13.9789758 31.8665991,6.38205046 30.4388935,4.52273499 C26.5436154,-0.549117953 19.8008669,1.84955957 19.6883092,1.91172943 L19.6521345,1.91840883 C18.9114972,1.76169969 18.0827549,1.6684449 17.1511603,1.65290244 C15.455106,1.62464341 14.1684441,2.10607446 13.1921037,2.86059045 C13.1921037,2.86059045 1.16368067,-2.18929752 1.72319204,9.21167813 C1.84217801,11.6370733 5.13445936,27.563732 9.06124854,22.7531466 C10.4965168,20.9940222 11.883384,19.5066983 11.883384,19.5066983 C12.572091,19.9729722 13.3966739,20.2108618 14.2610868,20.1254425 L14.3282685,20.067383 C14.3073451,20.2857482 14.3169245,20.4993608 14.355116,20.7522791 C13.3434831,21.9040913 13.640822,22.1062718 11.6185646,22.5305425 C9.57223279,22.9603366 10.7743188,23.7253855 11.5591977,23.9255108 C12.5107073,24.1678962 14.7119478,24.5113718 16.1992725,22.3895043 L16.1400316,22.6316328 C16.5363154,22.9551986 16.8146215,24.7360311 16.7679851,26.3505206 C16.7213486,27.9648817 16.6902157,29.0732778 17.0024278,29.9390316 C17.314892,30.8047854 17.6260958,32.7527314 20.2846256,32.1722653 C22.5059071,31.6871092 23.6570712,30.4299679 23.8172737,28.3328913 C23.9308398,26.8420992 24.1880965,27.0625196 24.2042302,25.7295927 L24.410565,25.0986457 C24.6484109,23.07774 24.4483784,22.4257272 25.8168431,22.7289979 L26.1496005,22.7587984 C27.1566957,22.8054258 28.4751208,22.5936115 29.2489077,22.2271433 C30.9149634,21.4392303 31.903152,20.1235157 30.2602885,20.469175 L30.2605406,20.469175" id="Path" fill="#336791"></path>
            <path d="M13.7225752,10.5685814 C13.3780507,10.5237142 13.0660503,10.5652133 12.9081861,10.6770805 C12.8194839,10.7399908 12.7919734,10.8128849 12.7845173,10.8630447 C12.7647199,10.9959621 12.8642207,11.1429532 12.9254123,11.2187342 C13.0984459,11.4333267 13.3511829,11.5807989 13.6013488,11.6132765 C13.637601,11.618088 13.6737247,11.6202532 13.7095912,11.6202532 C14.1267487,11.6202532 14.5061113,11.3162872 14.5395353,11.0919514 C14.5813154,10.8109603 14.145389,10.6236729 13.7225752,10.5687017 M25.1361062,10.5774826 C25.1031964,10.3572366 24.6843677,10.2944466 24.286879,10.3461702 C23.8899045,10.3978937 23.5050141,10.5655742 23.5371526,10.7863014 C23.5628634,10.9579513 23.8941468,11.2509712 24.2862362,11.2509712 C24.3194032,11.2509712 24.3528272,11.2489263 24.3865083,11.2444757 C24.6482441,11.2105546 24.8403036,11.0550232 24.9315769,10.9654091 C25.0704151,10.8287628 25.1508899,10.6764791 25.1361062,10.5774826" id="Shape" fill="#FFFFFF" fill-rule="nonzero"></path>
            <path d="M31.4954414,20.3507113 C31.3508619,19.9129282 30.8855046,19.7721073 30.1123739,19.9319511 C27.8168235,20.4063758 26.9947347,20.0777511 26.7248274,19.8787124 C28.5091222,17.1567711 29.976974,13.8664395 30.7688465,10.7965954 C31.1439373,9.34242508 31.3511169,7.99192347 31.3680738,6.89114591 C31.3868155,5.68299723 31.1812933,4.79517455 30.7574994,4.25282904 C29.0488092,2.06646676 26.5409794,0.893682879 23.5053196,0.86150984 C21.4183512,0.838018415 19.6550931,1.37283135 19.3132786,1.52322755 C18.5934409,1.34397776 17.8087082,1.23392553 16.9543631,1.21988175 C15.3877025,1.19447526 14.0334489,1.57008273 12.9122564,2.33572445 C12.4252249,2.15417659 11.1665927,1.72150028 9.62734356,1.4731806 C6.96626452,1.04420674 4.85162974,1.36925657 3.34259699,2.43977615 C1.5419828,3.71725007 0.710714341,6.00076982 0.871740732,9.22675535 C0.925926177,10.3120847 1.54351275,13.6509312 2.51808577,16.8484462 C3.8009421,21.0569861 5.1954842,23.4394507 6.66269853,23.9295789 C6.83443452,23.9869031 7.03243451,24.0269917 7.25083372,24.0269917 C7.78605842,24.0269917 8.44227602,23.7854386 9.12501262,22.963494 C9.95775536,21.9631363 10.8191743,20.9870692 11.7081921,20.0365135 C12.2849802,20.3464982 12.9186312,20.5196197 13.5666891,20.536983 C13.5679641,20.5539632 13.5696215,20.5709434 13.5711514,20.5877959 C13.4595964,20.7210054 13.3503591,20.856144 13.2434889,20.9931507 C12.7944509,21.5639668 12.700997,21.6828283 11.2555843,21.9808119 C10.8444124,22.0658407 9.75241632,22.2911796 9.73635193,23.0577151 C9.71901258,23.8952354 11.0272405,24.2469685 11.1762823,24.2842483 C11.6956976,24.4144725 12.1961161,24.4786909 12.6733305,24.4786909 C13.833919,24.4786909 14.8552827,24.0966999 15.6715068,23.3576137 C15.6463902,26.3433228 15.770698,29.2853685 16.1287044,30.1817451 C16.4219433,30.9155968 17.1382111,32.7089884 19.4007403,32.7088608 C19.7327377,32.7088608 20.0981388,32.6701765 20.5001311,32.5838711 C22.861469,32.077018 23.8869126,31.0319049 24.28355,28.7278302 C24.4958295,27.4964454 24.8600832,24.5560594 25.0314367,22.9788145 C25.3930129,23.0918032 25.8584978,23.1435098 26.3617212,23.1433822 C27.4112614,23.1433822 28.6223379,22.9200859 29.3818266,22.5670762 C30.2350242,22.1702754 31.7746558,21.1966579 31.4954414,20.3507113 L31.4954414,20.3507113 Z M25.8721398,9.69275373 C25.8643626,10.1583691 25.80036,10.5810871 25.7325326,11.0223173 C25.6594778,11.4968697 25.5840007,11.9875085 25.5650039,12.5830927 C25.5462621,13.1627181 25.6185519,13.7653243 25.6884192,14.3481414 C25.8296839,15.5252661 25.9746459,16.7371172 25.4135397,17.9328819 C25.3203329,17.767502 25.2373063,17.5965727 25.1649241,17.4210497 C25.0951842,17.2517582 24.94372,16.9798194 24.7339904,16.6034459 C23.9181489,15.1382959 22.0076339,11.7072711 22.9856493,10.3072332 C23.2769757,9.89051579 24.0163202,9.46205262 25.8721398,9.69275373 L25.8721398,9.69275373 Z M23.6226151,1.80435862 C26.3425969,1.86449157 28.4942053,2.88343214 30.0175175,4.83270977 C31.1858832,6.32786239 29.8993295,13.1310558 26.1748133,19.0002097 C26.1373574,18.9525169 26.0997035,18.9049804 26.0618526,18.8576014 L26.0146794,18.7986175 C26.9771403,17.2069458 26.7889575,15.6321266 26.6214288,14.2359188 C26.5525815,13.6629323 26.4875589,13.1217358 26.5041333,12.6133507 C26.5212176,12.07458 26.5923599,11.6124117 26.6612073,11.165564 C26.7457366,10.6149198 26.8317959,10.0451251 26.8080818,9.37344909 C26.8258036,9.30297481 26.8329433,9.21973346 26.8236362,9.12091626 C26.763076,8.47681713 26.0287038,6.54911587 24.5319106,4.80436685 C23.7131367,3.85002769 22.5191445,2.78206154 20.8888638,2.06174294 C21.5900872,1.91619824 22.5489783,1.78048419 23.6226151,1.80435862 Z M8.40249753,22.3619092 C7.65027607,23.2676058 7.13086077,23.0939736 6.96001725,23.0370324 C5.84698448,22.665255 4.55545848,20.3094736 3.41679918,16.5738263 C2.43151656,13.3414572 1.8557484,10.0910866 1.81010513,9.17964483 C1.66629059,6.29709373 2.36407162,4.28819385 3.88419645,3.20860965 C6.35811259,1.45185957 10.4254633,2.5033562 12.0598238,3.03663709 C12.0363647,3.05987317 12.0118856,3.08157721 11.9886815,3.10519631 C9.30669323,5.81743457 9.37031331,10.4513736 9.37694306,10.7346751 C9.37668807,10.8439612 9.38586772,10.9986982 9.39836225,11.2115255 C9.4445155,11.9909556 9.53044724,13.4415511 9.30095594,15.0842912 C9.08778403,16.6108508 9.5577312,18.1049821 10.5900595,19.1836726 C10.6960057,19.2941639 10.8073609,19.3993237 10.9237144,19.4987641 C10.4642218,19.9915734 9.4655522,21.0813712 8.40249753,22.3619092 Z M11.2684613,18.5326792 C10.4364279,17.6632412 10.0585322,16.4539434 10.2315431,15.2145154 C10.4737839,13.479214 10.3844098,11.9678472 10.3363442,11.155861 C10.3295869,11.042234 10.3235946,10.9426508 10.3201523,10.8641332 C10.7119449,10.5162303 12.5276035,9.5421022 13.8224444,9.83919213 C14.413257,9.97465084 14.7733033,10.3775799 14.9229827,11.0705769 C15.6976433,14.6585091 15.0254888,16.1539171 14.4854193,17.3556822 C14.374116,17.6032359 14.2689325,17.8372564 14.1791759,18.0793203 L14.1095635,18.2664856 C13.9333652,18.7396336 13.7694064,19.1795871 13.6677928,19.597326 C12.7832313,19.5947725 11.9227665,19.2163563 11.2684613,18.5325516 L11.2684613,18.5326792 Z M11.4042436,23.3714022 C11.1459384,23.3068008 10.9136423,23.1945781 10.7773499,23.1015061 C10.8912031,23.0478844 11.0937929,22.9748567 11.4451696,22.9023397 C13.1455726,22.5518834 13.4082126,22.3044574 13.9816859,21.5753295 C14.1131334,21.4080808 14.2621752,21.2186173 14.4685899,20.9877885 L14.4688449,20.9875332 C14.7762357,20.6428221 14.9168629,20.7012953 15.1718532,20.807262 C15.3785229,20.8928015 15.5798377,21.1522285 15.6614346,21.4377004 C15.7000657,21.5725208 15.743414,21.828373 15.6015119,22.0275394 C14.4035674,23.7071764 12.6579036,23.6856 11.4042436,23.3714022 L11.4042436,23.3714022 Z M20.3032785,31.6638753 C18.2230675,32.1102124 17.4865279,31.0473531 17.0011538,29.8323102 C16.6878982,29.0479009 16.533884,25.5106539 16.6431474,21.6043108 C16.6445498,21.5523488 16.6371551,21.5021741 16.6228757,21.454936 C16.6101024,21.3616559 16.5906734,21.2694118 16.5647379,21.1789117 C16.402309,20.6105213 16.0064366,20.1350753 15.5315171,19.9379516 C15.3428242,19.8596894 14.9965474,19.7160598 14.5804032,19.8226649 C14.6691398,19.4565051 14.8230264,19.0429794 14.9899176,18.5952379 L15.0599125,18.4069235 C15.1387045,18.194607 15.2376407,17.9746302 15.3421868,17.7417587 C15.9073728,16.4844568 16.6813959,14.7623055 15.8413303,10.8717935 C15.5266723,9.41455908 14.4758571,8.7029221 12.8829326,8.86825577 C11.9279938,8.96720063 11.0542694,9.35302176 10.618491,9.57427524 C10.524782,9.62176877 10.4391053,9.66773026 10.3590383,9.71241503 C10.4806687,8.24420095 10.9401613,5.50030033 12.659051,3.76423292 C13.7413575,2.67137096 15.1826903,2.13157886 16.9388087,2.1606878 C20.3990274,2.21737363 22.6179532,3.9955724 23.8702107,5.47744726 C24.9493298,6.75428283 25.5336401,8.04056604 25.7668288,8.73432911 C24.0131328,8.55571768 22.8204155,8.90234387 22.2158335,9.76795183 C20.9004659,11.6508406 22.9354162,15.3052893 23.9134316,17.0616564 C24.0928173,17.3835145 24.2475964,17.6617091 24.2962996,17.7799323 C24.6147825,18.5528512 25.0271018,19.0688966 25.3281179,19.4455254 C25.4204244,19.5609398 25.509926,19.6729071 25.5780084,19.7707029 C25.0468636,19.9240355 24.0928173,20.278322 24.179769,22.0492435 C24.1096466,22.9378322 23.611013,27.0981125 23.3576802,28.5679864 C23.0232603,30.5098591 22.3096699,31.2331141 20.3032785,31.664003 L20.3032785,31.6638753 Z M28.9862091,21.7137246 C28.4430797,21.9661298 27.5341667,22.1554656 26.6707695,22.1961926 C25.7171056,22.2408773 25.2316041,22.0892044 25.1173684,21.9958771 C25.0638204,20.8922908 25.4739724,20.7770041 25.9080934,20.6549508 C25.9763033,20.6358002 26.0428558,20.6170326 26.1071134,20.5945625 C26.1470193,20.6271186 26.1907502,20.6594193 26.2386884,20.6910816 C27.0051893,21.1976793 28.3723199,21.2523224 30.3024692,20.8533512 L30.3236334,20.8491381 C30.0632883,21.0928616 29.6178202,21.4199542 28.9862091,21.7137246 Z" id="Shape" fill="#FFFFFF" fill-rule="nonzero"></path>
        </g>
    </g>
</svg>